<svg width="1008" height="407" viewBox="0 0 1008 407" fill="none" xmlns="http://www.w3.org/2000/svg">
<g clip-path="url(#clip0_751_16)">
</g>
<rect x="197.9" y="50.6817" width="414.22" height="291.041" rx="18" stroke="black" stroke-width="4"/>
<rect x="219.504" y="73.2065" width="371.751" height="218.494" rx="10" fill="#6E07F3"/>
<rect x="160.045" y="248.121" width="76.8738" height="154.322" rx="7.5" fill="white" stroke="black" stroke-width="5"/>
<rect x="284.937" y="2" width="180.4" height="204.741" rx="13" stroke="#141C3A" stroke-width="4"/>
<path d="M282.937 19.1777H467.338V194.741C467.338 202.473 461.07 208.741 453.338 208.741H296.937C289.205 208.741 282.937 202.473 282.937 194.741V19.1777Z" fill="#141C3A"/>
<circle cx="299.165" cy="11.064" r="4.42561" fill="black"/>
<circle cx="311.704" cy="11.064" r="4.42561" fill="#6E07F3"/>
<circle cx="324.243" cy="11.064" r="4.42561" fill="#5BE9B9"/>
<rect x="299.165" y="48.6817" width="7.37602" height="3.68801" rx="1.844" fill="#363E54"/>
<rect x="311.704" y="48.6817" width="13.2768" height="3.68801" rx="1.844" fill="#6E07F3"/>
<rect x="330.144" y="48.6817" width="13.2768" height="3.68801" rx="1.844" fill="#5BE9B9"/>
<rect x="348.584" y="48.6817" width="21.3905" height="3.68801" rx="1.844" fill="#6E07F3"/>
<rect x="375.138" y="48.6817" width="33.1921" height="3.68801" rx="1.844" fill="#6E07F3"/>
<rect x="311.704" y="64.9089" width="28.0289" height="3.68801" rx="1.844" fill="#6E07F3"/>
<rect x="344.896" y="64.9089" width="46.4689" height="3.68801" rx="1.844" fill="#5BE9B9"/>
<rect x="396.528" y="64.9089" width="19.9152" height="3.68801" rx="1.844" fill="#6E07F3"/>
<rect x="311.704" y="81.1362" width="20.6528" height="3.68801" rx="1.844" fill="#5BE9B9"/>
<rect x="337.52" y="81.1362" width="17.7024" height="3.68801" rx="1.844" fill="#6E07F3"/>
<rect x="360.386" y="81.1362" width="11.064" height="3.68801" rx="1.844" fill="#6E07F3"/>
<rect x="311.704" y="97.3634" width="39.8305" height="3.68801" rx="1.844" fill="#6E07F3"/>
<rect x="356.698" y="97.3634" width="26.5537" height="3.68801" rx="1.844" fill="#6E07F3"/>
<rect x="311.704" y="113.591" width="39.8305" height="3.68801" rx="1.844" fill="#6E07F3"/>
<rect x="356.698" y="113.591" width="51.6321" height="3.68801" rx="1.844" fill="#5BE9B9"/>
<rect x="311.704" y="129.818" width="28.0289" height="3.68801" rx="1.844" fill="#6E07F3"/>
<rect x="344.896" y="129.818" width="25.0785" height="3.68801" rx="1.844" fill="#5BE9B9"/>
<rect x="375.138" y="129.818" width="16.2272" height="3.68801" rx="1.844" fill="#6E07F3"/>
<rect x="311.704" y="146.045" width="52.3697" height="3.68801" rx="1.844" fill="#6E07F3"/>
<rect x="311.704" y="162.272" width="24.3409" height="3.68801" rx="1.844" fill="#5BE9B9"/>
<rect x="299.165" y="64.9089" width="7.37602" height="3.68801" rx="1.844" fill="#363E54"/>
<rect x="299.165" y="81.1362" width="7.37602" height="3.68801" rx="1.844" fill="#363E54"/>
<rect x="299.165" y="97.3634" width="7.37602" height="3.68801" rx="1.844" fill="#363E54"/>
<rect x="299.165" y="113.591" width="7.37602" height="3.68801" rx="1.844" fill="#363E54"/>
<rect x="299.165" y="129.818" width="7.37602" height="3.68801" rx="1.844" fill="#363E54"/>
<rect x="299.165" y="146.045" width="7.37602" height="3.68801" rx="1.844" fill="#363E54"/>
<rect x="299.165" y="162.272" width="7.37602" height="3.68801" rx="1.844" fill="#363E54"/>
<path d="M348 401C348 396.582 351.582 393 356 393H455.491C459.91 393 463.491 396.582 463.491 401V404.49H348V401Z" stroke="black" stroke-width="4"/>
<path d="M376.136 393L379.504 342H432.444L436.821 393H376.136Z" stroke="black" stroke-width="4"/>
<rect x="499.055" y="182.925" width="296.516" height="204.316" rx="15" fill="white" stroke="black" stroke-width="4"/>
<rect x="510.119" y="203.578" width="274.388" height="165.96" rx="4" fill="#5BE9B9"/>
<path d="M625.185 387.241H669.441V387.241C669.441 392.537 665.148 396.83 659.852 396.83H634.774C629.478 396.83 625.185 392.537 625.185 387.241V387.241Z" stroke="black" stroke-width="3"/>
<path d="M476.714 387.028H815.699V390.681C815.699 397.861 809.878 403.681 802.699 403.681H489.714C482.534 403.681 476.714 397.861 476.714 390.681V387.028Z" stroke="black" stroke-width="4"/>
<path d="M843.385 403.681C844.401 391.464 854.638 381.865 867.118 381.865C879.598 381.865 889.836 391.464 890.851 403.681H843.385Z" stroke="black" stroke-width="4"/>
<rect x="649.313" y="126.655" width="217.281" height="187.776" rx="13" fill="#141C3A" stroke="#141C3A" stroke-width="4"/>
<circle cx="689.356" cy="138.669" r="4.42561" fill="#5BE9B9"/>
<circle cx="676.817" cy="138.669" r="4.42561" fill="#6E07F3"/>
<circle cx="664.278" cy="138.669" r="4.42561" fill="white"/>
<path d="M649.526 151.946H865.643V302.218C865.643 308.846 860.27 314.218 853.643 314.218H661.526C654.898 314.218 649.526 308.846 649.526 302.218V151.946Z" fill="white"/>
<rect x="684.93" y="181.45" width="29.5041" height="29.5041" rx="5" fill="#141C3A"/>
<rect x="684.93" y="181.45" width="29.5041" height="29.5041" rx="5" fill="#141C3A"/>
<rect x="684.93" y="181.45" width="29.5041" height="29.5041" rx="5" fill="#141C3A"/>
<rect x="684.93" y="181.45" width="29.5041" height="29.5041" rx="5" fill="#141C3A"/>
<rect x="684.93" y="218.33" width="29.5041" height="29.5041" rx="5" fill="#5BE9B9"/>
<rect x="684.93" y="255.21" width="29.5041" height="29.5041" rx="5" fill="#6E07F3"/>
<path d="M823.968 184.06C818.077 184.06 813.302 188.836 813.302 194.727C813.302 200.618 818.077 205.393 823.968 205.393C829.859 205.393 834.635 200.618 834.635 194.727C834.635 188.836 829.859 184.06 823.968 184.06ZM823.968 257.82C818.077 257.82 813.302 262.596 813.302 268.487C813.302 274.378 818.077 279.154 823.968 279.154C829.859 279.154 834.635 274.378 834.635 268.487C834.635 262.596 829.859 257.82 823.968 257.82ZM821.968 194.727V268.487H825.968V194.727H821.968Z" fill="black"/>
<circle cx="782.663" cy="231.238" r="39.9121" stroke="#BD00FF" stroke-width="5"/>
<rect x="816.224" y="224.231" width="13.2768" height="13.2768" fill="#5BE9B9"/>
<rect x="819.174" y="227.181" width="7.37602" height="7.37602" fill="white"/>
<rect x="775.656" y="183.663" width="13.2768" height="13.2768" fill="#5BE9B9"/>
<rect x="778.606" y="186.613" width="7.37602" height="7.37602" fill="white"/>
<rect x="735.087" y="224.231" width="13.2768" height="13.2768" fill="#5BE9B9"/>
<rect x="738.038" y="227.181" width="7.37602" height="7.37602" fill="white"/>
<rect x="775.656" y="264.799" width="13.2768" height="13.2768" fill="#5BE9B9"/>
<rect x="778.606" y="267.749" width="7.37602" height="7.37602" fill="white"/>
<line x1="867.88" y1="380.603" x2="867.88" y2="389.454" stroke="black" stroke-width="3"/>
<path d="M1006 365.113C1006 379.91 990.823 392.617 971.12 392.617C951.417 392.617 936.24 379.91 936.24 365.113C936.24 350.316 951.417 337.609 971.12 337.609C990.823 337.609 1006 350.316 1006 365.113Z" stroke="black" stroke-width="4"/>
<path d="M997.149 365.113C997.149 370.481 993.633 375.651 987.293 379.582C980.983 383.494 972.141 385.979 962.269 385.979C952.396 385.979 943.554 383.494 937.244 379.582C930.904 375.651 927.389 370.481 927.389 365.113C927.389 359.745 930.904 354.575 937.244 350.644C943.554 346.732 952.396 344.247 962.269 344.247C972.141 344.247 980.983 346.732 987.293 350.644C993.633 354.575 997.149 359.745 997.149 365.113Z" stroke="black" stroke-width="4"/>
<path d="M913.374 329.495H983.134V395.681C983.134 400.099 979.553 403.681 975.134 403.681H921.374C916.956 403.681 913.374 400.099 913.374 395.681V329.495Z" fill="white" stroke="black" stroke-width="4"/>
<rect x="947.041" y="348.41" width="21.6033" height="26.0289" rx="4" fill="#5BE9B9" stroke="black" stroke-width="2"/>
<path d="M941.616 328.97C944.946 319.057 956.867 319.427 957.105 329.339C957.344 339.252 957.474 348.886 957.474 348.886" stroke="black" stroke-width="4"/>
<rect x="159.02" y="263.324" width="78.1858" height="118.016" fill="#141C3A"/>
<line x1="178.936" y1="253.948" x2="215.816" y2="253.948" stroke="black" stroke-width="4"/>
<circle cx="182.624" cy="323.069" r="7.37602" fill="#7545FF"/>
<circle cx="198.482" cy="392.035" r="4.03201" fill="#141C3A" stroke="#141C3A" stroke-width="3"/>
<path d="M195.532 331.552H206.596M195.532 313.849C217.66 314.145 225.159 313.972 226.142 313.849H195.532ZM195.532 322.701H204.936H214.341H195.532Z" stroke="white" stroke-width="4"/>
<circle cx="118.083" cy="260.742" r="62.5402" fill="#5BE9B9" stroke="black" stroke-width="4"/>
<path d="M125.459 236.77L117.346 261.664L109.232 286.558" stroke="#141C3A" stroke-width="5"/>
<path d="M151.49 260.885L141.901 269.77L132.311 278.655" stroke="#141C3A" stroke-width="5"/>
<path d="M102.226 244.8L92.6369 253.685L83.0474 262.57" stroke="#141C3A" stroke-width="5"/>
<path d="M83.0144 260.323L91.8992 269.912L100.784 279.502" stroke="#141C3A" stroke-width="5"/>
<path d="M133.858 244.146L142.743 253.736L151.628 263.325" stroke="#141C3A" stroke-width="5"/>
<path d="M21.8265 365.85C14.5734 370.276 4.41906 382.225 21.8265 394.617H118.083C113.331 391.78 110.388 388.914 108.773 386.133C104.767 381.706 107.104 376.668 108.773 374.702C106.902 378.084 106.382 382.016 108.773 386.133C110.388 388.914 113.331 391.78 118.083 394.617H125.091C126.935 395.846 129.516 399.485 125.091 404.206H23.3017C10.3936 402.73 -18.0041 374.702 23.3017 354.786H125.091C127.672 356.262 131.287 360.54 125.091 365.85H118.083H21.8265Z" fill="#7545FF"/>
<path d="M118.083 394.617H21.8265C4.41906 382.225 14.5734 370.276 21.8265 365.85H118.083H125.091C131.287 360.54 127.672 356.262 125.091 354.786H23.3017C-18.0041 374.702 10.3936 402.73 23.3017 404.206H125.091C129.516 399.485 126.935 395.846 125.091 394.617H118.083ZM118.083 394.617C113.331 391.78 110.388 388.914 108.773 386.133M108.773 374.702H23.3017M108.773 374.702C106.902 378.084 106.382 382.016 108.773 386.133M108.773 374.702C107.104 376.668 104.767 381.706 108.773 386.133M108.773 374.702C109.822 372.805 114.764 367.326 117.715 366.219M108.773 386.133H23.3017" stroke="#141C3A" stroke-width="3"/>
<defs>
<clipPath id="clip0_751_16">
<rect x="195.9" y="48.6817" width="418.22" height="295.041" rx="20" fill="white"/>
</clipPath>
</defs>
</svg>
