<svg width="697" height="697" viewBox="0 0 697 697" fill="none" xmlns="http://www.w3.org/2000/svg">
<rect width="697" height="697" fill="#141C3A"/>
<path d="M413.802 205H244.764L224 224.734H333.373V277.072C328.597 270.198 312.438 251.524 298.868 248.686C285.298 245.847 250.321 264.653 234.528 274.411L244.764 287.717C247.591 288.013 252.075 288.605 260.264 285.722C268.453 282.838 283.075 270.198 293.019 270.198C300.038 270.907 319.373 293.262 325.514 302.798L261.726 343.826L274.302 361.345C274.302 361.345 319.433 336.314 333.373 324.487V386L356.774 371.325V304.572L393.038 288.605L402.981 302.798C371.689 310.782 371.981 334.955 376.953 345.378C382.771 357.575 391.283 371.325 417.311 374.43C446.642 377.929 466.736 362.454 472 354.027L456.208 345.378C445.484 353.288 420.47 364.362 406.198 345.378C391.926 326.394 421.113 314.552 437.491 311.003C429.594 299.841 413.802 277.427 413.802 277.072C413.802 276.629 453.283 259.109 413.802 246.468C384.204 236.991 380.462 262.657 383.679 272.859L356.774 284.169V224.734H402.981L413.802 205Z" stroke="white" stroke-width="10"/>
<path d="M144.642 439V417.182H152.014C153.719 417.182 155.118 417.473 156.212 418.055C157.305 418.631 158.115 419.423 158.641 420.431C159.166 421.44 159.429 422.587 159.429 423.872C159.429 425.158 159.166 426.298 158.641 427.292C158.115 428.286 157.309 429.067 156.222 429.636C155.136 430.197 153.747 430.477 152.057 430.477H146.091V428.091H151.972C153.136 428.091 154.074 427.92 154.784 427.58C155.501 427.239 156.02 426.756 156.339 426.131C156.666 425.499 156.83 424.746 156.83 423.872C156.83 422.999 156.666 422.235 156.339 421.582C156.013 420.928 155.491 420.424 154.773 420.069C154.056 419.707 153.108 419.526 151.929 419.526H147.284V439H144.642ZM154.912 429.199L160.281 439H157.213L151.929 429.199H154.912ZM178.474 417.182V439H175.831V417.182H178.474ZM207.703 422.636C207.575 421.557 207.056 420.719 206.147 420.122C205.238 419.526 204.123 419.227 202.802 419.227C201.836 419.227 200.991 419.384 200.267 419.696C199.549 420.009 198.988 420.438 198.583 420.985C198.186 421.532 197.987 422.153 197.987 422.849C197.987 423.432 198.125 423.933 198.402 424.352C198.686 424.763 199.049 425.108 199.489 425.385C199.929 425.655 200.391 425.879 200.874 426.056C201.357 426.227 201.801 426.365 202.206 426.472L204.422 427.068C204.99 427.217 205.622 427.423 206.318 427.686C207.021 427.949 207.692 428.308 208.331 428.762C208.978 429.21 209.51 429.785 209.929 430.488C210.348 431.191 210.558 432.054 210.558 433.077C210.558 434.256 210.249 435.321 209.631 436.273C209.02 437.224 208.125 437.981 206.946 438.542C205.775 439.103 204.35 439.384 202.674 439.384C201.112 439.384 199.759 439.131 198.615 438.627C197.479 438.123 196.584 437.42 195.931 436.518C195.284 435.616 194.919 434.568 194.833 433.375H197.561C197.632 434.199 197.909 434.881 198.392 435.42C198.882 435.953 199.5 436.351 200.245 436.614C200.998 436.869 201.808 436.997 202.674 436.997C203.683 436.997 204.588 436.834 205.391 436.507C206.194 436.173 206.829 435.712 207.298 435.122C207.767 434.526 208.001 433.83 208.001 433.034C208.001 432.31 207.799 431.72 207.394 431.266C206.989 430.811 206.456 430.442 205.796 430.158C205.135 429.874 204.422 429.625 203.654 429.412L200.97 428.645C199.265 428.155 197.916 427.455 196.922 426.546C195.927 425.637 195.43 424.447 195.43 422.977C195.43 421.756 195.76 420.69 196.421 419.781C197.088 418.865 197.983 418.155 199.105 417.651C200.235 417.139 201.495 416.884 202.887 416.884C204.294 416.884 205.544 417.136 206.637 417.64C207.731 418.137 208.598 418.819 209.237 419.685C209.883 420.552 210.224 421.536 210.26 422.636H207.703ZM226.902 439V417.182H229.544V426.898H241.177V417.182H243.819V439H241.177V429.241H229.544V439H226.902ZM262.004 439H259.234L267.245 417.182H269.972L277.984 439H275.214L268.694 420.634H268.524L262.004 439ZM263.026 430.477H274.191V432.821H263.026V430.477ZM293.382 439V417.182H301.01C302.53 417.182 303.784 417.445 304.771 417.97C305.758 418.489 306.493 419.188 306.976 420.069C307.459 420.942 307.7 421.912 307.7 422.977C307.7 423.915 307.534 424.689 307.2 425.3C306.873 425.911 306.44 426.393 305.9 426.749C305.367 427.104 304.789 427.366 304.164 427.537V427.75C304.831 427.793 305.502 428.027 306.177 428.453C306.852 428.879 307.416 429.49 307.871 430.286C308.325 431.081 308.553 432.054 308.553 433.205C308.553 434.298 308.304 435.282 307.807 436.156C307.31 437.029 306.525 437.722 305.453 438.233C304.38 438.744 302.985 439 301.266 439H293.382ZM296.024 436.656H301.266C302.992 436.656 304.217 436.322 304.941 435.655C305.673 434.98 306.039 434.163 306.039 433.205C306.039 432.466 305.85 431.784 305.474 431.159C305.097 430.527 304.561 430.023 303.865 429.646C303.169 429.263 302.345 429.071 301.394 429.071H296.024V436.656ZM296.024 426.77H300.925C301.72 426.77 302.438 426.614 303.077 426.301C303.723 425.989 304.235 425.548 304.611 424.98C304.994 424.412 305.186 423.744 305.186 422.977C305.186 422.018 304.852 421.205 304.185 420.538C303.517 419.863 302.459 419.526 301.01 419.526H296.024V426.77ZM324.894 439V417.182H327.536V426.898H339.17V417.182H341.812V439H339.17V429.241H327.536V439H324.894ZM386.271 439H379.539V417.182H386.57C388.686 417.182 390.497 417.619 392.003 418.492C393.509 419.359 394.663 420.605 395.465 422.232C396.268 423.851 396.669 425.79 396.669 428.048C396.669 430.321 396.264 432.278 395.455 433.918C394.645 435.552 393.466 436.809 391.918 437.69C390.369 438.563 388.487 439 386.271 439ZM382.181 436.656H386.101C387.905 436.656 389.4 436.308 390.586 435.612C391.772 434.916 392.656 433.925 393.239 432.64C393.821 431.354 394.112 429.824 394.112 428.048C394.112 426.287 393.825 424.771 393.249 423.499C392.674 422.221 391.815 421.241 390.671 420.559C389.528 419.87 388.104 419.526 386.399 419.526H382.181V436.656ZM413.101 439V417.182H415.743V426.898H427.377V417.182H430.019V439H427.377V429.241H415.743V439H413.101ZM448.203 439H445.433L453.444 417.182H456.172L464.183 439H461.413L454.893 420.634H454.723L448.203 439ZM449.226 430.477H460.39V432.821H449.226V430.477ZM475.48 417.182H478.506L484.557 427.366H484.812L490.863 417.182H493.889L486.006 430.009V439H483.363V430.009L475.48 417.182ZM507.974 439H505.205L513.216 417.182H515.943L523.955 439H521.185L514.665 420.634H514.494L507.974 439ZM508.997 430.477H520.162V432.821H508.997V430.477ZM539.353 439V417.182H541.995V436.656H552.137V439H539.353Z" fill="white"/>
<path d="M277.358 488H275.511L280.852 473.455H282.67L288.011 488H286.165L281.818 475.756H281.705L277.358 488ZM278.04 482.318H285.483V483.881H278.04V482.318ZM294.038 473.455V488H292.277V473.455H294.038ZM309.411 468.767V492.688H307.99V468.767H309.411ZM323.363 473.455H325.465L330.408 485.528H330.579L335.522 473.455H337.624V488H335.977V476.949H335.835L331.289 488H329.698L325.153 476.949H325.011V488H323.363V473.455ZM343.156 488V473.455H344.917V486.438H351.679V488H343.156ZM366.247 468.767V492.688H364.826V468.767H366.247ZM391.733 473.455V488H390.028L382.102 476.58H381.96V488H380.199V473.455H381.903L389.858 484.903H390V473.455H391.733ZM397.257 488V473.455H399.019V486.438H405.78V488H397.257ZM410.507 488V473.455H415.422C416.563 473.455 417.496 473.661 418.221 474.072C418.95 474.48 419.489 475.031 419.84 475.727C420.19 476.423 420.365 477.2 420.365 478.057C420.365 478.914 420.19 479.693 419.84 480.393C419.494 481.094 418.959 481.653 418.235 482.07C417.51 482.482 416.582 482.688 415.451 482.688H411.928V481.125H415.394C416.175 481.125 416.802 480.99 417.276 480.72C417.749 480.45 418.093 480.086 418.306 479.626C418.524 479.162 418.632 478.639 418.632 478.057C418.632 477.474 418.524 476.954 418.306 476.494C418.093 476.035 417.747 475.675 417.269 475.415C416.791 475.15 416.156 475.017 415.365 475.017H412.269V488H410.507Z" fill="#B4C8FF"/>
</svg>
