<svg width="50" height="50" viewBox="0 0 50 50" fill="none" xmlns="http://www.w3.org/2000/svg">
<circle cx="25" cy="25" r="23.5" stroke="white" stroke-width="3"/>
<path d="M22.0964 40H32.7447V32.3791C32.7447 30.5418 31.2832 29.0385 30.5524 28.5165C39.7392 25.1759 38.4865 18.7729 36.7117 15.9891C37.2964 12.0638 36.4682 10.5257 35.981 10.2473C34.3942 9.49566 32.2575 10.9781 31.3876 11.8132C28.1304 10.811 24.7411 11.3957 23.4535 11.8132C21.1151 9.64182 19.3473 9.86453 18.7557 10.2473C18.0041 10.2473 17.8858 14.0751 17.9206 15.9891C14.4129 23.5891 20.7044 27.5074 24.2887 28.5165C22.3052 29.9781 22.0964 31.6484 22.0964 32.3791C22.0964 32.9638 21.6092 33.2491 21.3656 33.3187C21.0524 33.3535 20.2173 33.4022 19.3821 33.3187C18.3381 33.2143 18.1225 31.2119 17.2942 30.0824C16.1458 28.5165 15.2063 28.8297 13.2228 28.8297C11.1717 28.8297 12.0744 31.4396 13.2228 31.3352C14.1415 31.2517 14.8151 31.6099 14.9231 31.923C16.5934 36.767 18.1294 37.2857 22.0964 36.8681V40Z" stroke="white" stroke-width="2"/>
</svg>
