<svg width="90" height="56" viewBox="0 0 90 56" fill="none" xmlns="http://www.w3.org/2000/svg">
<path d="M30.0586 0H0V10.0326H28.125C30.0938 9.81368 30.4102 11.4007 30.3223 12.2215V20.2476C29.6895 25.0632 24.8438 27.1183 22.5 27.544H0V37.6678H6.94336L27.2461 56H42.2754L22.0605 37.6678C36.2637 37.0111 39.9902 25.7807 40.0781 20.2476V11.3094C40.0781 3.42932 33.3984 0.486428 30.0586 0Z" fill="#7545FF"/>
<path d="M90 1.8233V13.0423C88.0312 11.0723 85.5 10.1238 81.9 10.1238H59.7656V45.9674H81.9C85.05 45.9674 87.3 45.258 90 42.9577V53.6648C87.75 55.5329 85.05 56 81.9 56H54.2285C51.1348 55.5622 50.0684 52.899 49.9219 51.6222C49.834 37.1205 49.7109 7.38762 49.9219 4.46906C50.1328 1.55049 52.6465 0.273616 53.877 0H81.9C84 0 87 0.5 90 1.8233Z" fill="#7545FF"/>
</svg>
