<svg width="220" height="218" viewBox="0 0 220 218" fill="none" xmlns="http://www.w3.org/2000/svg">
<path d="M110 212.26C167.925 212.26 215 165.928 215 108.63C215 51.332 167.925 5 110 5C52.0753 5 5 51.332 5 108.63C5 165.928 52.0753 212.26 110 212.26Z" fill="white" stroke="#BD00FF" stroke-width="10"/>
<path d="M81.7062 164.936L78.6106 140.683L137.084 133.63L143.791 157.024L138.975 185.578L120.23 209.315H114.898L88.7574 183.341L81.7062 164.936Z" fill="#E4BF94"/>
<path d="M76.2093 168.671L42.5901 182.59C50.8805 193.072 77.9588 213.795 120.635 209.396C163.31 204.997 187.759 175.888 194.563 162.313L154.254 153.034L147.907 143.927L137.959 137.397L142.419 155.612L137.959 183.621L119.434 207.506H114.288L88.3877 182.59L81.6981 165.063L80.1544 154.753L76.2093 168.671Z" fill="#7545FF"/>
<path d="M146.152 92.141C144.091 87.09 143.232 92.7667 143.06 96.2364L141.515 117.908C143.919 117.681 148.762 116.133 148.899 111.765C149.071 106.304 148.728 98.4548 146.152 92.141Z" fill="#E4BF94"/>
<path d="M59.5942 102.038C60.0064 94.257 64.5747 100.73 66.8073 104.939L71.9595 125.075C71.1581 125.587 68.5247 126.304 64.403 125.075C59.2507 123.539 59.079 111.765 59.5942 102.038Z" fill="#E4BF94"/>
<path d="M71.0635 132.053L65.9177 101.703V49.5759L107.084 34.3151L141.904 54.2056L143.791 91.0715L141.904 122.793L133.156 141.655L116.861 158.288H96.1064L85.6432 149.2L71.0635 132.053Z" fill="#F1CA9C"/>
<path d="M142.107 56.1892C144.711 63.3191 143.592 83.8976 143.306 92.1816C142.507 92.6958 142.107 89.4736 142.107 81.3839C142.107 73.2942 138.451 69.6721 136.624 68.8722C138.508 57.9031 133.025 55.675 132.682 54.3039C121.373 47.4482 107.836 43.2952 98.2402 44.8773C82.6472 47.4482 67.2254 60.6454 69.1103 64.7588C70.9951 68.8722 70.4811 75.3851 67.3967 82.0695C64.3124 88.7538 70.4811 100.408 66.1972 103.151C60.6568 87.8968 56.1372 44.7059 57.6295 42.6492C68.1298 28.1774 86.5837 24.8676 99.4397 23.7961C109.721 22.9391 129.598 27.9095 138.508 31.8515C139.879 32.9484 140.108 38.3644 140.051 40.9353C141.696 37.9188 140.736 34.6509 140.051 33.394C144.711 36.6848 143.363 49.962 142.107 56.1892Z" fill="#150A0A" stroke="black"/>
<path d="M78.2508 86.7195C87.6591 82.9568 93.5322 84.7241 99.1202 84.8381L97.2385 80.3913C91.2514 77.9968 82.3563 80.3913 77.0534 82.9568C73.1095 84.8648 72.0926 89.4561 72.0926 92.8767C72.8909 90.9953 74.7827 88.1065 78.2508 86.7195Z" fill="#151111"/>
<path d="M111.437 82.9568L110.581 77.9968C115.485 76.4005 126.593 73.892 131.793 76.6285C136.993 79.3651 138.065 85.1802 137.951 87.7457C135.898 82.2727 131.964 80.5623 130.253 80.3913C120.4 80.3913 113.546 81.8166 111.437 82.9568Z" fill="#151111"/>
<path d="M78.2508 86.7195C87.6591 82.9568 93.5322 84.7241 99.1202 84.8381L97.2385 80.3913C91.2514 77.9968 82.3563 80.3913 77.0534 82.9568C73.1095 84.8648 72.0926 89.4561 72.0926 92.8767C72.8909 90.9953 74.7827 88.1065 78.2508 86.7195Z" stroke="black"/>
<path d="M111.437 82.9568L110.581 77.9968C115.485 76.4005 126.593 73.892 131.793 76.6285C136.993 79.3651 138.065 85.1802 137.951 87.7457C135.898 82.2727 131.964 80.5623 130.253 80.3913C120.4 80.3913 113.546 81.8166 111.437 82.9568Z" stroke="black"/>
</svg>
