<svg width="260" height="154" viewBox="0 0 260 154" fill="none" xmlns="http://www.w3.org/2000/svg">
<path d="M88.1641 4H4V30.1564H82.75C88.2625 29.5857 89.1484 33.7231 88.9023 35.8632V56.7883C87.1305 69.3433 73.5625 74.7014 67 75.8111H4V102.205H23.4414L80.2891 150H122.371L65.7695 102.205C105.538 100.493 115.973 71.2139 116.219 56.7883V33.4853C116.219 12.9407 97.5156 5.26819 88.1641 4Z" stroke="#230549" stroke-width="7"/>
<path d="M256 8.75359V38.0033C250.488 32.8671 243.4 30.3941 233.32 30.3941H171.344V123.844H233.32C242.14 123.844 248.44 121.994 256 115.997V143.912C249.7 148.782 242.14 150 233.32 150H155.84C147.177 148.859 144.191 141.915 143.781 138.586C143.535 100.779 143.191 23.2606 143.781 15.6515C144.372 8.04235 151.41 4.71336 154.855 4H233.32C239.2 4 247.6 5.30357 256 8.75359Z" stroke="#230549" stroke-width="7"/>
</svg>
